<svg xmlns="http://www.w3.org/2000/svg" width="53" height="54" viewBox="0 0 53 54">
  <title>whatsinside_icon1</title>
  <g>
    <g>
      <polygon points="15.058 21.624 15.058 51.699 26.826 46.39 37.942 51.171 37.942 24.053 15.058 21.624" fill="#ffeddf" stroke="#1f2a36" stroke-linecap="round" stroke-linejoin="round" stroke-width="3"/>
      <g>
        <circle cx="26.5" cy="20.998" r="18.697" fill="#ffdc00" stroke="#1f2a36" stroke-linecap="round" stroke-miterlimit="10" stroke-width="3"/>
        <path d="M27.889,11.048l1.7,5.029a1.553,1.553,0,0,0,1.489,1.056l5.307-.06a1.552,1.552,0,0,1,.944,2.8l-4.258,3.168a1.552,1.552,0,0,0-.544,1.742l1.7,5.029a1.552,1.552,0,0,1-2.369,1.762L27.523,28.5a1.554,1.554,0,0,0-1.825.021L21.44,31.69a1.553,1.553,0,0,1-2.409-1.708l1.583-5.066a1.554,1.554,0,0,0-.583-1.73L15.7,20.115a1.552,1.552,0,0,1,.88-2.818l5.308-.06a1.553,1.553,0,0,0,1.464-1.089l1.583-5.066A1.552,1.552,0,0,1,27.889,11.048Z" fill="#fff"/>
      </g>
    </g>
    <rect width="53" height="54" fill="none"/>
  </g>
</svg>
